<svg id="_001-writing" data-name="001-writing" xmlns="http://www.w3.org/2000/svg" width="27.852" height="27.852" viewBox="0 0 27.852 27.852">
  <path id="Path_46" data-name="Path 46" d="M415.327,153.491a1.634,1.634,0,0,0-2.184-.112c-.093.075-.021.009-1.432,1.42l3.662,3.662,1.316-1.3a1.634,1.634,0,0,0,0-2.308Z" transform="translate(-389.315 -144.69)" fill="#137fc3"/>
  <path id="Path_47" data-name="Path 47" d="M234.892,213.466l-2.154,4.616a.816.816,0,0,0,1.084,1.085l4.616-2.154c.183-.085-.37.432,6.464-6.316l-3.655-3.655C234.472,213.817,234.979,213.28,234.892,213.466Z" transform="translate(-220.005 -195.778)" fill="#137fc3"/>
  <path id="Path_48" data-name="Path 48" d="M19.814,22.237a2.442,2.442,0,0,1-.685.476l-4.616,2.154a2.448,2.448,0,0,1-3.253-3.254L13.414,17a2.442,2.442,0,0,1,.487-.7l6.94-6.94V2.448A2.451,2.451,0,0,0,18.393,0H2.454A2.451,2.451,0,0,0,.006,2.448V25.4a2.451,2.451,0,0,0,2.448,2.448H18.393A2.451,2.451,0,0,0,20.841,25.4V21.223ZM4.358,5.277H16.543a.816.816,0,0,1,0,1.632H4.358a.816.816,0,1,1,0-1.632Zm0,4.352h9.574a.816.816,0,0,1,0,1.632H4.358a.816.816,0,1,1,0-1.632ZM3.542,14.8a.816.816,0,0,1,.816-.816h6.963a.816.816,0,1,1,0,1.632H4.358A.816.816,0,0,1,3.542,14.8Z" transform="translate(-0.006 0)" fill="#137fc3"/>
</svg>
