<svg xmlns="http://www.w3.org/2000/svg" width="29.293" height="29.348" viewBox="0 0 29.293 29.348">
  <g id="_002-gift" data-name="002-gift" transform="translate(0 0.045)">
    <g id="Group_2789" data-name="Group 2789" transform="translate(2.441 17.708)">
      <path id="Path_60" data-name="Path 60" d="M2,14.5H13.29V26.1H4.136A2.146,2.146,0,0,1,2,23.959Z" transform="translate(-2 -14.5)" fill="#137fc3"/>
    </g>
    <g id="Group_2790" data-name="Group 2790" transform="translate(15.562 17.708)">
      <path id="Path_61" data-name="Path 61" d="M24.04,14.5v9.459A2.146,2.146,0,0,1,21.9,26.1H12.75V14.5Z" transform="translate(-12.75 -14.5)" fill="#137fc3"/>
    </g>
    <g id="Group_2791" data-name="Group 2791" transform="translate(0 8.554)">
      <path id="Path_62" data-name="Path 62" d="M0,9.136v3.051a2.146,2.146,0,0,0,2.136,2.136h11.6V7H2.136A2.146,2.146,0,0,0,0,9.136Z" transform="translate(0 -7)" fill="#137fc3"/>
    </g>
    <g id="Group_2792" data-name="Group 2792" transform="translate(15.562 8.554)">
      <path id="Path_63" data-name="Path 63" d="M24.345,7H12.75v7.323h11.6a2.146,2.146,0,0,0,2.136-2.136V9.136A2.146,2.146,0,0,0,24.345,7Z" transform="translate(-12.75 -7)" fill="#137fc3"/>
    </g>
    <g id="Group_2793" data-name="Group 2793" transform="translate(13.731 -0.045)">
      <path id="Path_64" data-name="Path 64" d="M12.165,9.828a.917.917,0,0,1-.906-1.05C11.711,5.727,14.1-.045,19.89-.045c3.308,0,4.481,1.788,4.481,3.319,0,2.721-3.787,6.554-12.205,6.554ZM19.89,1.787c-4.372,0-6.032,4.156-6.582,6.183a14.669,14.669,0,0,0,6.877-1.777c1.737-1.031,2.356-2.185,2.356-2.921,0-1.1-1.368-1.485-2.65-1.485Z" transform="translate(-11.25 0.045)" fill="#137fc3"/>
    </g>
    <g id="Group_2794" data-name="Group 2794" transform="translate(2.442 -0.044)">
      <path id="Path_65" data-name="Path 65" d="M14.206,9.828C5.788,9.828,2,5.994,2,3.273,2,1.743,3.175-.044,6.483-.044c5.794,0,8.178,5.772,8.629,8.823a.915.915,0,0,1-.906,1.048ZM6.483,1.787c-1.282,0-2.651.391-2.651,1.487,0,1.559,2.725,4.4,9.231,4.7-.549-2.029-2.209-6.184-6.58-6.184Z" transform="translate(-2.001 0.044)" fill="#137fc3"/>
    </g>
  </g>
</svg>
