<svg id="_002-like-1" data-name="002-like-1" xmlns="http://www.w3.org/2000/svg" width="21.757" height="19.208" viewBox="0 0 21.757 19.208">
  <g id="Group_2796" data-name="Group 2796">
    <path id="Path_68" data-name="Path 68" d="M15.978,30a5.151,5.151,0,0,0-3.217,1.112,7.328,7.328,0,0,0-1.882,2.264A7.328,7.328,0,0,0,9,31.112,5.151,5.151,0,0,0,5.779,30C2.485,30,0,32.695,0,36.269c0,3.861,3.1,6.5,7.792,10.5.8.679,1.7,1.449,2.639,2.27a.68.68,0,0,0,.9,0c.939-.821,1.842-1.591,2.639-2.27,4.692-4,7.792-6.64,7.792-10.5C21.757,32.695,19.273,30,15.978,30Z" transform="translate(0 -30)" fill="#eb0000"/>
  </g>
</svg>
