<svg id="_004-bill" data-name="004-bill" xmlns="http://www.w3.org/2000/svg" width="30.012" height="36.586" viewBox="0 0 30.012 36.586">
  <path id="Path_57" data-name="Path 57" d="M124.216,224.4V211H121v13.4a1.608,1.608,0,0,0,3.216,0Z" transform="translate(-115.641 -195.923)" fill="#137fc3"/>
  <path id="Path_58" data-name="Path 58" d="M47.608,211A1.608,1.608,0,0,0,46,212.608V230.9l3.216,1.608,2.144-1.072,2.144,1.072,2.144-1.072,2.144,1.072,2.144-1.072,2.144,1.072,3.216-1.608V228.15H52.967a3.756,3.756,0,0,1-3.751-3.751v-11.79A1.608,1.608,0,0,0,47.608,211Z" transform="translate(-46 -195.923)" fill="#137fc3"/>
  <path id="Path_59" data-name="Path 59" d="M210.4,26.868V1.608L207.188,0l-2.144,1.072L202.9,0l-2.144,1.072L198.613,0,196.47,1.072,194.326,0,191.11,1.608V28.476a3.709,3.709,0,0,1-.376,1.608h16.454A3.219,3.219,0,0,0,210.4,26.868ZM195.4,6.5h2.144V8.646H195.4ZM206.116,25.8H195.4V23.652h10.719Zm0-4.287H195.4V19.365h10.719Zm0-4.287H195.4V15.077h10.719Zm0-4.287H195.4V10.79h10.719Zm0-4.287h-6.431V6.5h6.431Z" transform="translate(-180.392)" fill="#137fc3"/>
</svg>
