<svg id="account_box-24px" xmlns="http://www.w3.org/2000/svg" width="28.437" height="28.437" viewBox="0 0 28.437 28.437">
  <path id="Path_30" data-name="Path 30" d="M0,0H28.437V28.437H0Z" fill="none"/>
  <path id="Path_31" data-name="Path 31" d="M3,5.37V21.958a2.369,2.369,0,0,0,2.37,2.37H21.958a2.377,2.377,0,0,0,2.37-2.37V5.37A2.377,2.377,0,0,0,21.958,3H5.37A2.369,2.369,0,0,0,3,5.37Zm14.218,4.739a3.555,3.555,0,1,1-3.555-3.555A3.55,3.55,0,0,1,17.218,10.109ZM6.555,19.588c0-2.37,4.739-3.673,7.109-3.673s7.109,1.3,7.109,3.673v1.185H6.555Z" transform="translate(0.555 0.555)" fill="#969696"/>
</svg>
