<svg id="camera_alt-24px" xmlns="http://www.w3.org/2000/svg" width="31.5" height="31.5" viewBox="0 0 31.5 31.5">
  <path id="Path_1270" data-name="Path 1270" d="M0,0H31.5V31.5H0Z" fill="none"/>
  <circle id="Ellipse_448" data-name="Ellipse 448" cx="4.2" cy="4.2" r="4.2" transform="translate(11.55 11.55)" fill="rgba(255,255,255,0.64)"/>
  <path id="Path_1271" data-name="Path 1271" d="M11.188,2l-2.4,2.625H4.625A2.633,2.633,0,0,0,2,7.25V23a2.633,2.633,0,0,0,2.625,2.625h21A2.633,2.633,0,0,0,28.25,23V7.25a2.633,2.633,0,0,0-2.625-2.625H21.464L19.063,2Zm3.938,19.688a6.563,6.563,0,1,1,6.563-6.562A6.565,6.565,0,0,1,15.125,21.688Z" transform="translate(0.625 0.625)" fill="rgba(255,255,255,0.64)"/>
</svg>
