<svg xmlns="http://www.w3.org/2000/svg" xmlns:xlink="http://www.w3.org/1999/xlink" version="1.1" width="256" height="256" viewBox="0 0 256 256" xml:space="preserve">

<defs>
</defs>
<g style="stroke: none; stroke-width: 0; stroke-dasharray: none; stroke-linecap: butt; stroke-linejoin: miter; stroke-miterlimit: 10; fill: none; fill-rule: nonzero; opacity: 1;" transform="translate(1.4065934065934016 1.4065934065934016) scale(2.81 2.81)" >
	<path d="M 68.22 90 H 21.78 c -2.536 0 -4.6 -2.063 -4.6 -4.6 V 22.982 c 0 -0.552 0.448 -1 1 -1 h 53.639 c 0.553 0 1 0.448 1 1 V 85.4 C 72.819 87.937 70.756 90 68.22 90 z M 19.18 23.982 V 85.4 c 0 1.434 1.166 2.6 2.6 2.6 h 46.44 c 1.434 0 2.6 -1.166 2.6 -2.6 V 23.982 H 19.18 z" style="stroke: none; stroke-width: 1; stroke-dasharray: none; stroke-linecap: butt; stroke-linejoin: miter; stroke-miterlimit: 10; fill: rgb(0,0,0); fill-rule: nonzero; opacity: 1;" transform=" matrix(1 0 0 1 0 0) " stroke-linecap="round" />
	<path d="M 73.852 23.982 H 16.148 c -2.536 0 -4.6 -2.063 -4.6 -4.6 v -4.436 c 0 -2.536 2.063 -4.6 4.6 -4.6 h 57.704 c 2.536 0 4.6 2.063 4.6 4.6 v 4.436 C 78.451 21.918 76.388 23.982 73.852 23.982 z M 16.148 12.347 c -1.434 0 -2.6 1.166 -2.6 2.6 v 4.436 c 0 1.434 1.166 2.6 2.6 2.6 h 57.704 c 1.434 0 2.6 -1.166 2.6 -2.6 v -4.436 c 0 -1.434 -1.166 -2.6 -2.6 -2.6 H 16.148 z" style="stroke: none; stroke-width: 1; stroke-dasharray: none; stroke-linecap: butt; stroke-linejoin: miter; stroke-miterlimit: 10; fill: rgb(0,0,0); fill-rule: nonzero; opacity: 1;" transform=" matrix(1 0 0 1 0 0) " stroke-linecap="round" />
	<path d="M 57.48 12.347 H 32.52 c -0.552 0 -1 -0.448 -1 -1 V 4.6 c 0 -2.536 2.063 -4.6 4.6 -4.6 h 17.762 c 2.536 0 4.6 2.063 4.6 4.6 v 6.747 C 58.48 11.899 58.033 12.347 57.48 12.347 z M 33.52 10.347 H 56.48 V 4.6 c 0 -1.434 -1.166 -2.6 -2.6 -2.6 H 36.119 c -1.434 0 -2.6 1.166 -2.6 2.6 V 10.347 z" style="stroke: none; stroke-width: 1; stroke-dasharray: none; stroke-linecap: butt; stroke-linejoin: miter; stroke-miterlimit: 10; fill: rgb(0,0,0); fill-rule: nonzero; opacity: 1;" transform=" matrix(1 0 0 1 0 0) " stroke-linecap="round" />
	<path d="M 45 78.359 c -0.552 0 -1 -0.447 -1 -1 V 34.62 c 0 -0.552 0.448 -1 1 -1 s 1 0.448 1 1 v 42.739 C 46 77.912 45.552 78.359 45 78.359 z" style="stroke: none; stroke-width: 1; stroke-dasharray: none; stroke-linecap: butt; stroke-linejoin: miter; stroke-miterlimit: 10; fill: rgb(0,0,0); fill-rule: nonzero; opacity: 1;" transform=" matrix(1 0 0 1 0 0) " stroke-linecap="round" />
	<path d="M 58.528 78.359 c -0.553 0 -1 -0.447 -1 -1 V 34.62 c 0 -0.552 0.447 -1 1 -1 s 1 0.448 1 1 v 42.739 C 59.528 77.912 59.081 78.359 58.528 78.359 z" style="stroke: none; stroke-width: 1; stroke-dasharray: none; stroke-linecap: butt; stroke-linejoin: miter; stroke-miterlimit: 10; fill: rgb(0,0,0); fill-rule: nonzero; opacity: 1;" transform=" matrix(1 0 0 1 0 0) " stroke-linecap="round" />
	<path d="M 31.471 78.359 c -0.552 0 -1 -0.447 -1 -1 V 34.62 c 0 -0.552 0.448 -1 1 -1 s 1 0.448 1 1 v 42.739 C 32.471 77.912 32.023 78.359 31.471 78.359 z" style="stroke: none; stroke-width: 1; stroke-dasharray: none; stroke-linecap: butt; stroke-linejoin: miter; stroke-miterlimit: 10; fill: rgb(0,0,0); fill-rule: nonzero; opacity: 1;" transform=" matrix(1 0 0 1 0 0) " stroke-linecap="round" />
</g>
</svg>