<svg id="external-link" xmlns="http://www.w3.org/2000/svg" width="18.87" height="18.87" viewBox="0 0 18.87 18.87">
  <path id="Path_7719" data-name="Path 7719" d="M135.96,0h-6.488a1.163,1.163,0,0,0,0,2.326h3.681l-6.14,6.139a1.163,1.163,0,1,0,1.645,1.645l6.139-6.14V7.652a1.163,1.163,0,0,0,2.326,0V1.163A1.164,1.164,0,0,0,135.96,0Z" transform="translate(-118.253)"/>
  <path id="Path_7720" data-name="Path 7720" d="M13.368,66.153H1.994V54.779h8.555l1.994-1.994H1a1,1,0,0,0-1,1V67.15a1,1,0,0,0,1,1H14.365a1,1,0,0,0,1-1V55.6L13.368,57.6Z" transform="translate(0 -49.277)"/>
</svg>
