<svg xmlns="http://www.w3.org/2000/svg" width="18" height="18" viewBox="0 0 18 18">
  <g id="Group_5377" data-name="Group 5377" transform="translate(-36 -537)">
    <rect id="Rectangle_2013" data-name="Rectangle 2013" width="18" height="18" transform="translate(36 537)" fill="none"/>
    <g id="_003-sign-out-option" data-name="003-sign-out-option" transform="translate(38 541)">
      <g id="Group_5262" data-name="Group 5262" transform="translate(0 0)">
        <path id="Path_7696" data-name="Path 7696" d="M5.475,51.243a.223.223,0,0,1-.017-.116c.006-.031-.014-.057-.06-.077s-.068-.036-.068-.047-.033-.02-.1-.026l-.1-.009H2.464a1.318,1.318,0,0,1-.967-.4,1.318,1.318,0,0,1-.4-.967V43.578a1.318,1.318,0,0,1,.4-.967,1.318,1.318,0,0,1,.967-.4H5.2a.258.258,0,0,0,.175-.056.284.284,0,0,0,.085-.167,1.439,1.439,0,0,0,.026-.2,2.128,2.128,0,0,0,0-.227q-.008-.137-.009-.171a.277.277,0,0,0-.274-.274H2.464a2.373,2.373,0,0,0-1.741.723A2.373,2.373,0,0,0,0,43.579V49.6a2.373,2.373,0,0,0,.723,1.741,2.372,2.372,0,0,0,1.741.723H5.2a.26.26,0,0,0,.175-.056.284.284,0,0,0,.085-.167,1.442,1.442,0,0,0,.026-.2,2.126,2.126,0,0,0,0-.227Q5.475,51.277,5.475,51.243Z" transform="translate(0 -41.115)"/>
        <path id="Path_7697" data-name="Path 7697" d="M119.6,55.062l-4.654-4.654a.548.548,0,0,0-.932.385v2.464h-3.832a.555.555,0,0,0-.548.548V57.09a.555.555,0,0,0,.548.548h3.832V60.1a.544.544,0,0,0,.932.385l4.653-4.653a.537.537,0,0,0,0-.77Z" transform="translate(-106.348 -49.972)"/>
      </g>
    </g>
  </g>
</svg>
