<svg xmlns="http://www.w3.org/2000/svg" width="18" height="18" viewBox="0 0 18 18">
  <g id="Group_5375" data-name="Group 5375" transform="translate(-37 -401)">
    <rect id="Rectangle_2017" data-name="Rectangle 2017" width="18" height="18" transform="translate(37 401)" fill="none"/>
    <g id="_002-settings" data-name="002-settings" transform="translate(149 403)">
      <g id="Group_5261" data-name="Group 5261" transform="translate(-110)">
        <path id="Path_7695" data-name="Path 7695" d="M19.415,8.946,17.92,7.774a5.562,5.562,0,0,0,.05-.691,5.562,5.562,0,0,0-.05-.691l1.5-1.172a.353.353,0,0,0,.085-.453L18.087,2.313a.35.35,0,0,0-.432-.152l-1.764.712a5.374,5.374,0,0,0-1.2-.7L14.429.3a.364.364,0,0,0-.354-.3H11.241a.358.358,0,0,0-.351.3l-.266,1.877a5.242,5.242,0,0,0-1.2.7L7.664,2.16a.354.354,0,0,0-.432.152L5.816,4.767A.355.355,0,0,0,5.9,5.22L7.4,6.392a5.562,5.562,0,0,0-.05.691,5.562,5.562,0,0,0,.05.691L5.9,8.946a.353.353,0,0,0-.085.453l1.417,2.454a.35.35,0,0,0,.432.152l1.764-.712a5.374,5.374,0,0,0,1.2.7l.266,1.877a.358.358,0,0,0,.351.3h2.833a.358.358,0,0,0,.351-.3l.266-1.877a5.242,5.242,0,0,0,1.2-.7l1.764.712a.354.354,0,0,0,.432-.152L19.5,9.4A.355.355,0,0,0,19.415,8.946Zm-6.757.616a2.479,2.479,0,1,1,2.479-2.479A2.477,2.477,0,0,1,12.658,9.562Z" transform="translate(-5.768)"/>
      </g>
    </g>
  </g>
</svg>
