<svg xmlns="http://www.w3.org/2000/svg" width="18" height="18" viewBox="0 0 18 18">
  <g id="Group_5376" data-name="Group 5376" transform="translate(-37 -433)">
    <rect id="Rectangle_2015" data-name="Rectangle 2015" width="18" height="18" transform="translate(37 433)" fill="none"/>
    <g id="_001-writing" data-name="001-writing" transform="translate(39 435)">
      <path id="Path_46" data-name="Path 46" d="M413.538,153.255a.826.826,0,0,0-1.1-.056c-.047.038-.01,0-.723.717l1.85,1.85.665-.657a.825.825,0,0,0,0-1.166Z" transform="translate(-400.396 -148.809)"/>
      <path id="Path_47" data-name="Path 47" d="M233.788,210.287l-1.088,2.332a.412.412,0,0,0,.548.548l2.332-1.088c.092-.043-.187.218,3.266-3.191L237,207.041A44.63,44.63,0,0,0,233.788,210.287Z" transform="translate(-226.267 -201.351)"/>
      <path id="Path_48" data-name="Path 48" d="M10.013,11.235a1.234,1.234,0,0,1-.346.241L7.335,12.563A1.237,1.237,0,0,1,5.692,10.92L6.78,8.588a1.234,1.234,0,0,1,.246-.351L10.532,4.73V1.237A1.238,1.238,0,0,0,9.3,0H1.243A1.238,1.238,0,0,0,.006,1.237v11.6a1.238,1.238,0,0,0,1.237,1.237H9.3a1.238,1.238,0,0,0,1.237-1.237V10.722ZM2.2,2.666H8.361a.412.412,0,0,1,0,.825H2.2a.412.412,0,1,1,0-.825Zm0,2.2H7.042a.412.412,0,0,1,0,.825H2.2a.412.412,0,1,1,0-.825ZM1.792,7.476A.412.412,0,0,1,2.2,7.063H5.723a.412.412,0,0,1,0,.825H2.2A.412.412,0,0,1,1.792,7.476Z" transform="translate(-0.006 0)"/>
    </g>
  </g>
</svg>
