<svg xmlns="http://www.w3.org/2000/svg" width="18" height="18" viewBox="0 0 18 18">
  <g id="Group_5373" data-name="Group 5373" transform="translate(-36 -335)">
    <rect id="Rectangle_2018" data-name="Rectangle 2018" width="18" height="18" transform="translate(36 335)" fill="none"/>
    <g id="account_circle-24px" transform="translate(37 336)">
      <path id="Path_7698" data-name="Path 7698" d="M0,0H16.037V16.037H0Z" fill="none"/>
      <path id="Path_7699" data-name="Path 7699" d="M8.682,2a6.682,6.682,0,1,0,6.682,6.682A6.684,6.684,0,0,0,8.682,2Zm0,2a2,2,0,1,1-2,2A2,2,0,0,1,8.682,4Zm0,9.488a4.811,4.811,0,0,1-4.009-2.152c.02-1.33,2.673-2.058,4.009-2.058s3.989.728,4.009,2.058A4.811,4.811,0,0,1,8.682,13.493Z" transform="translate(-0.664 -0.664)"/>
    </g>
  </g>
</svg>
