<svg id="lock-24px" xmlns="http://www.w3.org/2000/svg" width="18" height="18" viewBox="0 0 18 18">
  <path id="Path_7700" data-name="Path 7700" d="M0,0H18V18H0Z" fill="none"/>
  <path id="Path_7701" data-name="Path 7701" d="M14.422,6.239h-.744v-1.5a3.722,3.722,0,1,0-7.444,0v1.5H5.489A1.5,1.5,0,0,0,4,7.736V15.22a1.5,1.5,0,0,0,1.489,1.5h8.933a1.5,1.5,0,0,0,1.489-1.5V7.736A1.5,1.5,0,0,0,14.422,6.239ZM9.955,12.974a1.5,1.5,0,1,1,1.489-1.5A1.5,1.5,0,0,1,9.955,12.974Zm2.308-6.736H7.648v-1.5a2.308,2.308,0,1,1,4.615,0Z" transform="translate(-0.955 -0.239)"/>
</svg>
