<svg width="150.000000" height="150.000000" viewBox="0 0 150 150" fill="none" xmlns="http://www.w3.org/2000/svg" xmlns:xlink="http://www.w3.org/1999/xlink">
	<desc>
			Created with Pixso.
	</desc>
	<path d="M104.062 9.80176C105.35 9.40625 105.771 9.45654 106.085 10.5366C106.367 11.5166 106.65 12.4966 106.939 13.4702C107.661 15.9575 108.384 18.4448 109.106 20.9321C109.282 21.5352 109.458 22.144 109.634 22.7471C109.634 22.7471 109.966 23.4194 108.961 23.7524C104.772 25.0273 100.633 26.478 96.5312 28.0044C86.9337 31.5659 77.4556 35.6548 68.8818 41.3018C65.936 43.2422 63.0845 45.3716 60.5029 47.7837C55.9554 52.042 51.8978 57.4316 50.8615 63.7188C49.8752 69.6919 51.6654 75.9858 55.7418 80.4766C57.0859 81.959 58.6688 83.2339 60.4213 84.2075C65.8418 87.2354 72.2422 87.5742 78.3098 87.3984C83.5231 87.2476 88.7112 86.4062 93.7235 84.9741C94.9797 84.6157 96.2234 84.2202 97.4546 83.793C98.3652 83.479 99.2384 83.0708 100.118 82.6875C100.319 82.5996 100.52 82.5117 100.733 82.4678C100.89 82.6499 100.231 82.5933 100.118 82.6875C100.118 82.6875 93.0264 88.6733 82.1915 91.3555C79.3964 92.0464 76.5762 92.5488 73.712 92.8188C67.2927 93.4155 60.616 92.9824 54.7306 90.1309C49.4167 87.5557 45.2273 83.1587 42.8029 77.7886C41.6219 75.1753 40.8369 72.3931 40.4224 69.5537C39.5178 63.2979 40.3595 56.7529 42.9976 50.9932C43.1483 50.6602 43.3179 50.3462 43.4812 50.0259C45.8743 45.4092 49.1216 41.3457 52.7395 37.6333C55.2833 35.0205 58.0721 32.772 61.0054 30.6172C66.7274 26.4092 72.8704 22.7725 79.1953 19.5503C81.6011 18.3188 84.0632 17.1885 86.5569 16.146C86.5569 16.146 96.437 12.126 104.062 9.80176Z" fill-rule="evenodd" fill="#FFFFFF"/>
	<path d="M33.0986 39.4868C33.0986 39.4868 33.8335 38.3936 34.6626 39.1284L41.4587 44.5176C41.4587 44.5176 42.0618 44.9199 41.4587 45.8809C38.9966 49.8003 36.9113 54.0776 35.4415 58.4619C33.2933 64.875 32.8411 72.1357 35.6738 78.417C37.2629 81.9028 39.7189 85.106 42.6521 87.562C45.0641 89.5845 47.7776 91.249 50.6667 92.499C56.8098 95.1558 63.5431 95.9033 70.1821 95.4697C70.8354 95.4258 71.4823 95.3755 72.1356 95.313C77.4054 94.8291 82.625 93.6294 87.5745 91.7578C92.2853 89.9805 96.814 87.543 100.941 84.6538C101.38 84.3462 101.801 84.0195 102.241 83.7119C100.759 85.4893 99.2635 87.5117 97.4861 88.9814C94.3141 91.6133 90.8721 93.8555 87.2102 95.7461C81.2432 98.8179 74.717 101.003 68.0529 101.852C61.489 102.687 54.7559 102.178 48.3993 100.35C44.2476 99.1567 40.3219 97.3418 36.7731 94.8667C34.5433 93.3154 32.4768 91.519 30.6678 89.4839C26.2208 84.4907 23.5388 78.2847 22.7411 71.6582C22.4648 69.3721 22.4146 67.0542 22.5903 64.7554C22.8856 60.8169 23.8779 56.9541 25.2913 53.2671C26.158 51.0059 27.1693 48.8013 28.3313 46.6724C28.9971 45.4473 29.7131 44.2539 30.4794 43.0854C30.894 42.4575 31.321 41.8418 31.7607 41.2329C31.9366 41.0005 32.8285 39.4868 33.0986 39.4868Z" fill-rule="evenodd" fill="#FFFFFF"/>
	<path d="M70.358 56.9858C70.358 56.9858 71.0929 57.2559 71.2311 56.3828C71.8529 52.3628 73.7184 48.6382 76.8589 45.9814C83.7115 40.1836 94.5402 40.7554 100.62 47.4009C101.588 48.4561 102.31 49.6431 103.057 50.8555C103.327 51.2949 103.874 51.4834 104.357 51.4771C105.947 51.4648 107.448 50.8804 109.056 51C111.417 51.1821 113.647 52.2119 115.406 53.7759C116.411 54.668 117.284 55.7168 117.95 56.8853C118.565 57.9653 118.729 59.1401 119.225 60.2393C119.426 60.6851 119.859 60.8862 120.324 60.9492C128.081 61.9727 131.228 72.3242 125.336 77.4683C124.564 78.1401 123.678 78.6807 122.742 79.0952C122.742 79.0952 121.298 79.7671 119.357 79.7671C119.357 79.7671 69.5979 79.7671 69.5667 79.7671C66.3569 79.7671 63.1661 78.6177 60.8861 76.3125C57.1677 72.5566 56.5459 66.1499 59.6173 61.8159C62.0417 58.5308 66.3569 56.7661 70.358 56.9858Z" fill-rule="evenodd" fill="#FFFFFF"/>
	<path d="M83.3712 129.529L92.5201 129.529L92.5201 134.356L83.3712 134.356L83.3712 129.529Z" fill-rule="evenodd" fill="#FFFFFF"/>
	<path d="M43.5336 123.91C42.8853 122.469 42.0928 121.172 41.0122 120.092C39.9316 119.011 38.707 118.147 37.2662 117.427C35.8254 116.778 34.3126 116.418 32.6556 116.418L28.7656 116.418C23.4347 116.49 23.4347 121.893 23.4347 121.893L23.4347 140.479L32.7278 140.479C34.3846 140.479 35.9695 140.119 37.3383 139.471C38.7791 138.822 40.0037 137.958 41.0842 136.805C42.1648 135.725 43.0293 134.428 43.6056 132.987C44.1819 131.546 44.5421 130.033 44.5421 128.449C44.4701 126.864 44.1819 125.351 43.5336 123.91ZM37.4823 131.186C37.1941 131.979 36.762 132.699 36.1135 133.275C35.5372 133.852 34.8169 134.355 33.9524 134.716C33.0879 135.076 32.1514 135.22 31.0708 135.22L29.63 135.22L29.63 121.749L31.0708 121.749C32.1514 121.749 33.0879 121.893 33.9524 122.253C34.8169 122.613 35.5372 123.045 36.1135 123.694C36.6899 124.27 37.1221 124.991 37.4823 125.855C37.7705 126.72 37.9866 127.584 37.9866 128.521C37.9146 129.457 37.7705 130.321 37.4823 131.186Z" fill-rule="evenodd" fill="#FFFFFF"/>
	<path d="M126.523 123.91C125.874 122.469 125.082 121.172 124.001 120.092C122.921 119.011 121.696 118.147 120.255 117.427C118.814 116.778 117.302 116.418 115.645 116.418L111.755 116.418C106.424 116.49 106.424 121.893 106.424 121.893L106.424 140.479L115.717 140.479C117.374 140.479 118.958 140.119 120.327 139.471C121.768 138.822 122.993 137.958 124.073 136.805C125.154 135.725 126.018 134.428 126.595 132.987C127.171 131.546 127.531 130.033 127.531 128.449C127.459 126.864 127.171 125.351 126.523 123.91ZM120.471 131.186C120.183 131.979 119.751 132.699 119.103 133.275C118.526 133.852 117.806 134.355 116.941 134.716C116.077 135.076 115.14 135.22 114.06 135.22L112.619 135.22L112.619 121.749L114.06 121.749C115.14 121.749 116.077 121.893 116.941 122.253C117.806 122.613 118.526 123.045 119.103 123.694C119.679 124.27 120.111 124.991 120.471 125.855C120.76 126.72 120.976 127.584 120.976 128.521C120.904 129.457 120.76 130.321 120.471 131.186Z" fill-rule="evenodd" fill="#FFFFFF"/>
	<path d="M50.1611 116.418C46.343 116.418 45.9828 120.308 45.9108 121.389L51.0255 121.677L51.0255 140.479L57.293 140.479L57.293 121.677L62.4077 121.677L62.4077 116.346L50.1611 116.418Z" fill-rule="evenodd" fill="#FFFFFF"/>
	<path d="M80.5616 128.521C79.6251 127.368 78.1123 126.503 76.0952 125.783C75.5909 125.639 75.0867 125.423 74.5824 125.279C74.0781 125.135 73.5739 124.991 73.1416 124.775C72.7094 124.559 72.4211 124.342 72.1331 124.054C71.8448 123.766 71.7728 123.406 71.7728 122.974C71.7728 122.325 72.061 121.821 72.5653 121.461C73.0696 121.101 73.7179 120.885 74.5104 120.885C75.1587 120.885 75.807 121.029 76.4554 121.317C77.1038 121.605 77.8241 121.965 78.4725 122.542L80.9939 117.643C79.7692 116.995 78.5446 116.49 77.2478 116.202C75.9512 115.842 74.7264 115.698 73.5018 115.698C72.2051 115.698 71.0525 115.914 70.0439 116.274C69.0354 116.634 68.1709 117.21 67.4506 117.859C66.7301 118.579 66.1538 119.372 65.7936 120.38C65.4333 121.317 65.2173 122.397 65.2173 123.622C65.2173 124.847 65.4333 125.783 65.7936 126.576C66.1538 127.368 66.6581 128.017 67.2344 128.521C67.8107 129.025 68.5311 129.457 69.3235 129.746C70.116 130.034 70.9083 130.322 71.7008 130.61C72.3491 130.826 72.9976 131.042 73.4297 131.258C73.934 131.474 74.2942 131.69 74.5824 131.907C74.8705 132.123 75.0867 132.411 75.2307 132.627C75.3748 132.915 75.4468 133.203 75.4468 133.563C75.4468 134.14 75.2307 134.716 74.7264 135.148C74.2222 135.652 73.4297 135.869 72.4211 135.869C71.5568 135.869 70.6202 135.652 69.6837 135.292C66.9462 134.5 65.5775 135.869 65.5775 135.869L64.2087 138.462C66.8021 140.263 69.6117 141.2 72.6373 141.2C74.0781 141.2 75.4468 140.983 76.5995 140.623C77.7521 140.263 78.7606 139.687 79.5531 138.966C80.3455 138.246 80.9218 137.381 81.354 136.373C81.7863 135.364 82.0024 134.284 82.0024 132.987C81.9304 131.186 81.4982 129.673 80.5616 128.521Z" fill-rule="evenodd" fill="#FFFFFF"/>
	<path d="M98.2112 116.418C95.0415 116.418 95.1135 119.516 95.1135 119.516L95.1135 140.479L101.381 140.479L101.381 116.418L98.2112 116.418Z" fill-rule="evenodd" fill="#FFFFFF"/>
	<defs/>
</svg>
