<svg xmlns="http://www.w3.org/2000/svg" width="29" height="28" viewBox="0 0 29 28">
  <g id="mark_email_unread-24px" transform="translate(0.074 -0.437)">
    <rect id="Rectangle_30" data-name="Rectangle 30" width="29" height="28" transform="translate(-0.074 0.437)" fill="none"/>
    <path id="Path_36" data-name="Path 36" d="M25.7,10.27V20.958a2.377,2.377,0,0,1-2.37,2.37H4.37A2.377,2.377,0,0,1,2,20.958V6.739A2.377,2.377,0,0,1,4.37,4.37H16.337a6.479,6.479,0,0,0-.118,1.185A5.892,5.892,0,0,0,18.2,9.95l-4.348,2.713L4.37,6.739v2.37l9.479,5.924,6.28-3.934a5.737,5.737,0,0,0,2.014.379A5.9,5.9,0,0,0,25.7,10.27ZM18.588,5.555A3.555,3.555,0,1,0,22.143,2,3.55,3.55,0,0,0,18.588,5.555Z" transform="translate(0.37 0.37)" fill="#969696"/>
  </g>
</svg>
