<svg xmlns="http://www.w3.org/2000/svg" xmlns:xlink="http://www.w3.org/1999/xlink" width="375" height="847" viewBox="0 0 375 847">
  <defs>
    <filter id="Rectangle_23" x="14" y="69" width="347" height="124" filterUnits="userSpaceOnUse">
      <feOffset dy="1" input="SourceAlpha"/>
      <feGaussianBlur stdDeviation="2" result="blur"/>
      <feFlood flood-color="#3e3e3e" flood-opacity="0.161"/>
      <feComposite operator="in" in2="blur"/>
      <feComposite in="SourceGraphic"/>
    </filter>
    <filter id="Rectangle_32" x="11" y="474" width="353" height="143" filterUnits="userSpaceOnUse">
      <feOffset dy="1" input="SourceAlpha"/>
      <feGaussianBlur stdDeviation="3" result="blur-2"/>
      <feFlood flood-opacity="0.161"/>
      <feComposite operator="in" in2="blur-2"/>
      <feComposite in="SourceGraphic"/>
    </filter>
    <filter id="Rectangle_33" x="11" y="624" width="353" height="127" filterUnits="userSpaceOnUse">
      <feOffset dy="1" input="SourceAlpha"/>
      <feGaussianBlur stdDeviation="3" result="blur-3"/>
      <feFlood flood-opacity="0.161"/>
      <feComposite operator="in" in2="blur-3"/>
      <feComposite in="SourceGraphic"/>
    </filter>
    <filter id="Rectangle_29" x="-6" y="777" width="387" height="77" filterUnits="userSpaceOnUse">
      <feOffset dy="1" input="SourceAlpha"/>
      <feGaussianBlur stdDeviation="2" result="blur-4"/>
      <feFlood flood-opacity="0.161"/>
      <feComposite operator="in" in2="blur-4"/>
      <feComposite in="SourceGraphic"/>
    </filter>
    <clipPath id="clip-Onboarding_1">
      <rect width="375" height="847"/>
    </clipPath>
  </defs>
  <g id="Onboarding_1" data-name="Onboarding – 1" clip-path="url(#clip-Onboarding_1)">
    <rect width="375" height="847" fill="#fff"/>
    <rect id="Rectangle_35" data-name="Rectangle 35" width="376" height="149" fill="#137fc3"/>
    <g transform="matrix(1, 0, 0, 1, 0, 0)" filter="url(#Rectangle_23)">
      <rect id="Rectangle_23-2" data-name="Rectangle 23" width="335" height="112" rx="10" transform="translate(20 74)" fill="#fff"/>
    </g>
    <g id="Status_Bar" data-name="Status Bar">
      <rect id="Frame" width="375" height="44" fill="#fff" opacity="0.001"/>
      <g id="Status_Bar-2" data-name="Status Bar" transform="translate(21 13)">
        <g id="Battery" transform="translate(315 3)">
          <g id="Border" transform="translate(0.333 0.333)" fill="none" stroke="#fff" stroke-miterlimit="10" stroke-width="1" opacity="0.35">
            <rect width="22" height="11.333" rx="2.667" stroke="none"/>
            <rect x="0.5" y="0.5" width="21" height="10.333" rx="2.167" fill="none"/>
          </g>
          <path id="Cap" d="M0,0V4A2.17,2.17,0,0,0,1.328,2,2.17,2.17,0,0,0,0,0" transform="translate(23.333 4)" fill="#fff" opacity="0.4"/>
          <rect id="Capacity" width="18" height="7.333" rx="1.333" transform="translate(2.333 2.333)" fill="#fff"/>
        </g>
        <path id="Wifi" d="M7.667,11a.314.314,0,0,1-.222-.093L5.439,8.885a.31.31,0,0,1-.094-.231.316.316,0,0,1,.1-.227,3.437,3.437,0,0,1,4.437,0,.315.315,0,0,1,.009.458L7.889,10.907A.314.314,0,0,1,7.667,11ZM11.19,7.451a.313.313,0,0,1-.215-.086,4.928,4.928,0,0,0-6.612,0,.313.313,0,0,1-.215.086.308.308,0,0,1-.22-.091L2.768,6.189a.322.322,0,0,1,0-.46,7.192,7.192,0,0,1,9.791,0,.323.323,0,0,1,.1.23.319.319,0,0,1-.095.23L11.409,7.36A.309.309,0,0,1,11.19,7.451Zm2.669-2.693a.3.3,0,0,1-.215-.088,8.68,8.68,0,0,0-11.955,0,.307.307,0,0,1-.435,0L.094,3.5a.323.323,0,0,1,0-.457,10.948,10.948,0,0,1,15.141,0,.323.323,0,0,1,0,.457l-1.161,1.17A.306.306,0,0,1,13.859,4.758Z" transform="translate(295 3.331)" fill="#fff"/>
        <path id="Cellular_Connection" data-name="Cellular Connection" d="M16,10.667H15a1,1,0,0,1-1-1V1a1,1,0,0,1,1-1h1a1,1,0,0,1,1,1V9.667A1,1,0,0,1,16,10.667Zm-4.667,0h-1a1,1,0,0,1-1-1V3.334a1,1,0,0,1,1-1h1a1,1,0,0,1,1,1V9.667A1,1,0,0,1,11.334,10.667Zm-4.667,0h-1a1,1,0,0,1-1-1v-4a1,1,0,0,1,1-1h1a1,1,0,0,1,1,1v4A1,1,0,0,1,6.666,10.667ZM2,10.667H1a1,1,0,0,1-1-1v-2a1,1,0,0,1,1-1H2a1,1,0,0,1,1,1v2A1,1,0,0,1,2,10.667Z" transform="translate(273 3.667)" fill="#fff"/>
        <g id="Time_Style" data-name="Time Style">
          <text id="Time" fill="#fff" font-size="15" font-family="SegoeUI-Semibold, Segoe UI" font-weight="600" letter-spacing="-0.02em"><tspan x="14.116" y="16">9:41</tspan></text>
        </g>
      </g>
    </g>
    <text id="Thanh_Le" data-name="Thanh Le" transform="translate(36 121)" font-size="30" font-family="SegoeUI-Bold, Segoe UI" font-weight="700"><tspan x="0" y="0">Thanh Le</tspan></text>
    <text id="Designer" transform="translate(36 153)" font-size="18" font-family="SegoeUI, Segoe UI"><tspan x="0" y="0">Designer</tspan></text>
    <text id="Lịch_sử_chấm_công" data-name="Lịch sử
chấm công" transform="translate(75 310.5)" font-size="12" font-family="SegoeUI, Segoe UI"><tspan x="-18.161" y="0">Lịch sử</tspan><tspan x="-29.247" y="16">chấm công</tspan></text>
    <text id="Quản_lý_phép" data-name="Quản lý
phép" transform="translate(187.5 310.5)" font-size="12" font-family="SegoeUI, Segoe UI"><tspan x="-20.367" y="0">Quản lý</tspan><tspan x="-13.588" y="16">phép</tspan></text>
    <text id="Phiếu_lương" data-name="Phiếu lương" transform="translate(75.5 451.5)" font-size="12" font-family="SegoeUI, Segoe UI"><tspan x="-31.878" y="0">Phiếu lương</tspan></text>
    <text id="Ưu_đãi_cá_nhân" data-name="Ưu đãi
cá nhân" transform="translate(299 310.5)" font-size="12" font-family="SegoeUI, Segoe UI"><tspan x="-17.326" y="0">Ưu đãi</tspan><tspan x="-20.707" y="16">cá nhân</tspan></text>
    <g id="account_circle-24px" transform="translate(263.514 90.066)">
      <path id="Path_39" data-name="Path 39" d="M0,0H80.337V80.337H0Z" fill="none"/>
      <path id="Path_40" data-name="Path 40" d="M35.474,2A33.474,33.474,0,1,0,68.948,35.474,33.486,33.486,0,0,0,35.474,2Zm0,10.042A10.042,10.042,0,1,1,25.432,22.084,10.029,10.029,0,0,1,35.474,12.042Zm0,47.533A24.1,24.1,0,0,1,15.39,48.8c.1-6.661,13.39-10.31,20.084-10.31,6.661,0,19.984,3.649,20.084,10.31A24.1,24.1,0,0,1,35.474,59.575Z" transform="translate(4.695 4.695)" fill="#137fc3"/>
    </g>
    <circle id="Ellipse_38" data-name="Ellipse 38" cx="39" cy="39" r="39" transform="translate(36 211)" fill="#eaf7ff"/>
    <circle id="Ellipse_39" data-name="Ellipse 39" cx="39" cy="39" r="39" transform="translate(148 211)" fill="#eaf7ff"/>
    <circle id="Ellipse_42" data-name="Ellipse 42" cx="39" cy="39" r="39" transform="translate(36 352)" fill="#eaf7ff"/>
    <circle id="Ellipse_40" data-name="Ellipse 40" cx="39" cy="39" r="39" transform="translate(260 211)" fill="#eaf7ff"/>
    <g transform="matrix(1, 0, 0, 1, 0, 0)" filter="url(#Rectangle_32)">
      <rect id="Rectangle_32-2" data-name="Rectangle 32" width="335" height="125" rx="10" transform="translate(20 482)" fill="#fff"/>
    </g>
    <g transform="matrix(1, 0, 0, 1, 0, 0)" filter="url(#Rectangle_33)">
      <rect id="Rectangle_33-2" data-name="Rectangle 33" width="335" height="109" rx="10" transform="translate(20 632)" fill="#fff"/>
    </g>
    <text id="Họp_công_ty" data-name="Họp công ty" transform="translate(36 516)" font-size="18" font-family="SegoeUI-Bold, Segoe UI" font-weight="700"><tspan x="0" y="0">Họp công ty</tspan></text>
    <text id="Họp_team_code" data-name="Họp team code" transform="translate(36 666)" font-size="18" font-family="SegoeUI-Bold, Segoe UI" font-weight="700"><tspan x="0" y="0">Họp team code</tspan></text>
    <text id="_11:00_am" data-name="11:00 am" transform="translate(283 518)" font-size="12" font-family="SegoeUI-Bold, Segoe UI" font-weight="700"><tspan x="0" y="0">11:00 am</tspan></text>
    <text id="_09:32_am" data-name="09:32 am" transform="translate(283 668)" font-size="12" font-family="SegoeUI-Bold, Segoe UI" font-weight="700"><tspan x="0" y="0">09:32 am</tspan></text>
    <text id="Trưa_nay_mọi_người_họp_bàn_về_vấn_đề_và_đưa_ra_kế_hoạch_làm_sao_để_công_ty_phát_triển_." data-name="Trưa nay mọi người họp bàn về vấn đề và đưa ra kế hoạch làm sao để công ty phát triển,…." transform="translate(36 534)" font-size="12" font-family="SegoeUI, Segoe UI"><tspan x="0" y="13">Trưa nay mọi người họp bàn về vấn đề và đưa ra kế </tspan><tspan x="0" y="29">hoạch làm sao để công ty phát triển,….</tspan></text>
    <text id="Tại_sao_cơm_vui_vẻ_chưa_xong_" data-name="Tại sao cơm vui vẻ chưa xong ?!" transform="translate(36 684)" font-size="12" font-family="SegoeUI, Segoe UI"><tspan x="0" y="13">Tại sao cơm vui vẻ chưa xong ?!</tspan></text>
    <text id="Xem_thêm" data-name="Xem thêm" transform="translate(36 574)" font-size="10" font-family="SegoeUI-Italic, Segoe UI" font-style="italic"><tspan x="0" y="11">Xem thêm</tspan></text>
    <text id="Xem_thêm-2" data-name="Xem thêm" transform="translate(36 708)" font-size="10" font-family="SegoeUI-Italic, Segoe UI" font-style="italic"><tspan x="0" y="11">Xem thêm</tspan></text>
    <g id="Group_113" data-name="Group 113" transform="translate(0 180)">
      <g transform="matrix(1, 0, 0, 1, 0, -180)" filter="url(#Rectangle_29)">
        <rect id="Rectangle_29-2" data-name="Rectangle 29" width="375" height="65" transform="translate(0 782)" fill="#fff"/>
      </g>
      <circle id="Ellipse_37" data-name="Ellipse 37" cx="31.78" cy="31.78" r="31.78" transform="translate(155.72 577.22)" fill="#137fc3"/>
      <g id="home-24px" transform="translate(33 612.563)">
        <path id="Path_34" data-name="Path 34" d="M0,0H28.437V28.437H0Z" fill="none"/>
        <path id="Path_35" data-name="Path 35" d="M11.479,23.143V16.034h4.739v7.109h5.924V13.664H25.7L13.849,3,2,13.664H5.555v9.479Z" transform="translate(0.37 0.555)" fill="#137fc3"/>
      </g>
      <g id="account_box-24px" transform="translate(316.611 612.563)">
        <path id="Path_30" data-name="Path 30" d="M0,0H28.437V28.437H0Z" fill="none"/>
        <path id="Path_31" data-name="Path 31" d="M3,5.37V21.958a2.369,2.369,0,0,0,2.37,2.37H21.958a2.377,2.377,0,0,0,2.37-2.37V5.37A2.377,2.377,0,0,0,21.958,3H5.37A2.369,2.369,0,0,0,3,5.37Zm14.218,4.739a3.555,3.555,0,1,1-3.555-3.555A3.55,3.55,0,0,1,17.218,10.109ZM6.555,19.588c0-2.37,4.739-3.673,7.109-3.673s7.109,1.3,7.109,3.673v1.185H6.555Z" transform="translate(0.555 0.555)" fill="#969696"/>
      </g>
      <g id="mark_email_unread-24px" transform="translate(249.074 612.563)">
        <rect id="Rectangle_30" data-name="Rectangle 30" width="29" height="28" transform="translate(-0.074 0.437)" fill="none"/>
        <path id="Path_36" data-name="Path 36" d="M25.7,10.27V20.958a2.377,2.377,0,0,1-2.37,2.37H4.37A2.377,2.377,0,0,1,2,20.958V6.739A2.377,2.377,0,0,1,4.37,4.37H16.337a6.479,6.479,0,0,0-.118,1.185A5.892,5.892,0,0,0,18.2,9.95l-4.348,2.713L4.37,6.739v2.37l9.479,5.924,6.28-3.934a5.737,5.737,0,0,0,2.014.379A5.9,5.9,0,0,0,25.7,10.27ZM18.588,5.555A3.555,3.555,0,1,0,22.143,2,3.55,3.55,0,0,0,18.588,5.555Z" transform="translate(0.37 0.37)" fill="#969696"/>
      </g>
      <text id="Trang_chủ" data-name="Trang chủ" transform="translate(23 652)" fill="#137fc3" font-size="10" font-family="SegoeUI, Segoe UI"><tspan x="0" y="0">Trang chủ</tspan></text>
      <text id="Công_việc" data-name="Công việc" transform="translate(92 652)" fill="#7b7b7b" font-size="10" font-family="SegoeUI, Segoe UI"><tspan x="0" y="0">Công việc</tspan></text>
      <text id="DTS_feed" data-name="DTS feed" transform="translate(242 652)" fill="#7b7b7b" font-size="10" font-family="SegoeUI, Segoe UI"><tspan x="0" y="0">DTS feed</tspan></text>
      <text id="Cá_nhân" data-name="Cá nhân" transform="translate(311 652)" fill="#7b7b7b" font-size="10" font-family="SegoeUI, Segoe UI"><tspan x="0" y="0">Cá nhân</tspan></text>
      <g id="security-pin" transform="translate(175.481 592.262)">
        <g id="Group_112" data-name="Group 112" transform="translate(0 0)">
          <path id="Path_37" data-name="Path 37" d="M80.751,0A12.056,12.056,0,0,0,68.817,12.148c0,3.747,1.9,8.295,5.633,13.517a59.564,59.564,0,0,0,5.544,6.662,1.067,1.067,0,0,0,1.5.017,53.764,53.764,0,0,0,5.556-6.494c3.741-5.145,5.637-9.755,5.637-13.7A12.056,12.056,0,0,0,80.751,0Zm0,17.393a5.834,5.834,0,1,1,5.834-5.834A5.841,5.841,0,0,1,80.751,17.393Z" transform="translate(-68.817)" fill="#fff"/>
        </g>
      </g>
      <g id="text_snippet-24px" transform="translate(100 612.563)">
        <rect id="Rectangle_31" data-name="Rectangle 31" width="28" height="28" transform="translate(0 0.437)" fill="none"/>
        <path id="Path_38" data-name="Path 38" d="M23.64,9.414,17.914,3.688A2.369,2.369,0,0,0,16.242,3H5.371A2.378,2.378,0,0,0,3,5.371v16.6A2.378,2.378,0,0,0,5.371,24.34h16.6a2.378,2.378,0,0,0,2.371-2.371V11.1A2.378,2.378,0,0,0,23.64,9.414ZM7.742,7.742h8.3v2.371h-8.3ZM19.6,19.6H7.742V17.226H19.6Zm0-4.742H7.742V12.484H19.6Z" transform="translate(0.557 0.54)" fill="#969696"/>
      </g>
    </g>
    <g id="Status_Bar-3" data-name="Status Bar">
      <rect id="Frame-2" data-name="Frame" width="375" height="44" fill="#fff" opacity="0.001"/>
      <g id="Status_Bar-4" data-name="Status Bar" transform="translate(21 13)">
        <g id="Battery-2" data-name="Battery" transform="translate(315 3)">
          <g id="Border-2" data-name="Border" transform="translate(0.333 0.333)" fill="none" stroke="#fff" stroke-miterlimit="10" stroke-width="1" opacity="0.35">
            <rect width="22" height="11.333" rx="2.667" stroke="none"/>
            <rect x="0.5" y="0.5" width="21" height="10.333" rx="2.167" fill="none"/>
          </g>
          <path id="Cap-2" data-name="Cap" d="M0,0V4A2.17,2.17,0,0,0,1.328,2,2.17,2.17,0,0,0,0,0" transform="translate(23.333 4)" fill="#fff" opacity="0.4"/>
          <rect id="Capacity-2" data-name="Capacity" width="18" height="7.333" rx="1.333" transform="translate(2.333 2.333)" fill="#fff"/>
        </g>
        <path id="Wifi-2" data-name="Wifi" d="M7.667,11a.314.314,0,0,1-.222-.093L5.439,8.885a.31.31,0,0,1-.094-.231.316.316,0,0,1,.1-.227,3.437,3.437,0,0,1,4.437,0,.315.315,0,0,1,.009.458L7.889,10.907A.314.314,0,0,1,7.667,11ZM11.19,7.451a.313.313,0,0,1-.215-.086,4.928,4.928,0,0,0-6.612,0,.313.313,0,0,1-.215.086.308.308,0,0,1-.22-.091L2.768,6.189a.322.322,0,0,1,0-.46,7.192,7.192,0,0,1,9.791,0,.323.323,0,0,1,.1.23.319.319,0,0,1-.095.23L11.409,7.36A.309.309,0,0,1,11.19,7.451Zm2.669-2.693a.3.3,0,0,1-.215-.088,8.68,8.68,0,0,0-11.955,0,.307.307,0,0,1-.435,0L.094,3.5a.323.323,0,0,1,0-.457,10.948,10.948,0,0,1,15.141,0,.323.323,0,0,1,0,.457l-1.161,1.17A.306.306,0,0,1,13.859,4.758Z" transform="translate(295 3.331)" fill="#fff"/>
        <path id="Cellular_Connection-2" data-name="Cellular Connection" d="M16,10.667H15a1,1,0,0,1-1-1V1a1,1,0,0,1,1-1h1a1,1,0,0,1,1,1V9.667A1,1,0,0,1,16,10.667Zm-4.667,0h-1a1,1,0,0,1-1-1V3.334a1,1,0,0,1,1-1h1a1,1,0,0,1,1,1V9.667A1,1,0,0,1,11.334,10.667Zm-4.667,0h-1a1,1,0,0,1-1-1v-4a1,1,0,0,1,1-1h1a1,1,0,0,1,1,1v4A1,1,0,0,1,6.666,10.667ZM2,10.667H1a1,1,0,0,1-1-1v-2a1,1,0,0,1,1-1H2a1,1,0,0,1,1,1v2A1,1,0,0,1,2,10.667Z" transform="translate(273 3.667)" fill="#fff"/>
        <g id="Time_Style-2" data-name="Time Style">
          <text id="Time-2" data-name="Time" fill="#fff" font-size="15" font-family="SegoeUI-Semibold, Segoe UI" font-weight="600" letter-spacing="-0.02em"><tspan x="14.116" y="16">9:41</tspan></text>
        </g>
      </g>
    </g>
    <g id="_002-gift" data-name="002-gift" transform="translate(284.354 235.394)">
      <g id="Group_2789" data-name="Group 2789" transform="translate(2.441 17.708)">
        <path id="Path_60" data-name="Path 60" d="M2,14.5H13.29V26.1H4.136A2.146,2.146,0,0,1,2,23.959Z" transform="translate(-2 -14.5)" fill="#137fc3"/>
      </g>
      <g id="Group_2790" data-name="Group 2790" transform="translate(15.562 17.708)">
        <path id="Path_61" data-name="Path 61" d="M24.04,14.5v9.459A2.146,2.146,0,0,1,21.9,26.1H12.75V14.5Z" transform="translate(-12.75 -14.5)" fill="#137fc3"/>
      </g>
      <g id="Group_2791" data-name="Group 2791" transform="translate(0 8.554)">
        <path id="Path_62" data-name="Path 62" d="M0,9.136v3.051a2.146,2.146,0,0,0,2.136,2.136h11.6V7H2.136A2.146,2.146,0,0,0,0,9.136Z" transform="translate(0 -7)" fill="#137fc3"/>
      </g>
      <g id="Group_2792" data-name="Group 2792" transform="translate(15.562 8.554)">
        <path id="Path_63" data-name="Path 63" d="M24.345,7H12.75v7.323h11.6a2.146,2.146,0,0,0,2.136-2.136V9.136A2.146,2.146,0,0,0,24.345,7Z" transform="translate(-12.75 -7)" fill="#137fc3"/>
      </g>
      <g id="Group_2793" data-name="Group 2793" transform="translate(13.731 -0.045)">
        <path id="Path_64" data-name="Path 64" d="M12.165,9.828a.917.917,0,0,1-.906-1.05C11.711,5.727,14.1-.045,19.89-.045c3.308,0,4.481,1.788,4.481,3.319,0,2.721-3.787,6.554-12.205,6.554ZM19.89,1.787c-4.372,0-6.032,4.156-6.582,6.183a14.669,14.669,0,0,0,6.877-1.777c1.737-1.031,2.356-2.185,2.356-2.921,0-1.1-1.368-1.485-2.65-1.485Z" transform="translate(-11.25 0.045)" fill="#137fc3"/>
      </g>
      <g id="Group_2794" data-name="Group 2794" transform="translate(2.442 -0.044)">
        <path id="Path_65" data-name="Path 65" d="M14.206,9.828C5.788,9.828,2,5.994,2,3.273,2,1.743,3.175-.044,6.483-.044c5.794,0,8.178,5.772,8.629,8.823a.915.915,0,0,1-.906,1.048ZM6.483,1.787c-1.282,0-2.651.391-2.651,1.487,0,1.559,2.725,4.4,9.231,4.7-.549-2.029-2.209-6.184-6.58-6.184Z" transform="translate(-2.001 0.044)" fill="#137fc3"/>
      </g>
    </g>
    <g id="_004-bill" data-name="004-bill" transform="translate(60.436 372.414)">
      <path id="Path_57" data-name="Path 57" d="M124.216,224.4V211H121v13.4a1.608,1.608,0,0,0,3.216,0Z" transform="translate(-115.641 -195.923)" fill="#137fc3"/>
      <path id="Path_58" data-name="Path 58" d="M47.608,211A1.608,1.608,0,0,0,46,212.608V230.9l3.216,1.608,2.144-1.072,2.144,1.072,2.144-1.072,2.144,1.072,2.144-1.072,2.144,1.072,3.216-1.608V228.15H52.967a3.756,3.756,0,0,1-3.751-3.751v-11.79A1.608,1.608,0,0,0,47.608,211Z" transform="translate(-46 -195.923)" fill="#137fc3"/>
      <path id="Path_59" data-name="Path 59" d="M210.4,26.868V1.608L207.188,0l-2.144,1.072L202.9,0l-2.144,1.072L198.613,0,196.47,1.072,194.326,0,191.11,1.608V28.476a3.709,3.709,0,0,1-.376,1.608h16.454A3.219,3.219,0,0,0,210.4,26.868ZM195.4,6.5h2.144V8.646H195.4ZM206.116,25.8H195.4V23.652h10.719Zm0-4.287H195.4V19.365h10.719Zm0-4.287H195.4V15.077h10.719Zm0-4.287H195.4V10.79h10.719Zm0-4.287h-6.431V6.5h6.431Z" transform="translate(-180.392)" fill="#137fc3"/>
    </g>
    <g id="_001-writing" data-name="001-writing" transform="translate(175 236.148)">
      <path id="Path_46" data-name="Path 46" d="M415.327,153.491a1.634,1.634,0,0,0-2.184-.112c-.093.075-.021.009-1.432,1.42l3.662,3.662,1.316-1.3a1.634,1.634,0,0,0,0-2.308Z" transform="translate(-389.315 -144.69)" fill="#137fc3"/>
      <path id="Path_47" data-name="Path 47" d="M234.892,213.466l-2.154,4.616a.816.816,0,0,0,1.084,1.085l4.616-2.154c.183-.085-.37.432,6.464-6.316l-3.655-3.655C234.472,213.817,234.979,213.28,234.892,213.466Z" transform="translate(-220.005 -195.778)" fill="#137fc3"/>
      <path id="Path_48" data-name="Path 48" d="M19.814,22.237a2.442,2.442,0,0,1-.685.476l-4.616,2.154a2.448,2.448,0,0,1-3.253-3.254L13.414,17a2.442,2.442,0,0,1,.487-.7l6.94-6.94V2.448A2.451,2.451,0,0,0,18.393,0H2.454A2.451,2.451,0,0,0,.006,2.448V25.4a2.451,2.451,0,0,0,2.448,2.448H18.393A2.451,2.451,0,0,0,20.841,25.4V21.223ZM4.358,5.277H16.543a.816.816,0,0,1,0,1.632H4.358a.816.816,0,1,1,0-1.632Zm0,4.352h9.574a.816.816,0,0,1,0,1.632H4.358a.816.816,0,1,1,0-1.632ZM3.542,14.8a.816.816,0,0,1,.816-.816h6.963a.816.816,0,1,1,0,1.632H4.358A.816.816,0,0,1,3.542,14.8Z" transform="translate(-0.006 0)" fill="#137fc3"/>
    </g>
    <g id="restore-24px" transform="translate(55.148 231.127)">
      <path id="Path_66" data-name="Path 66" d="M0,0H37.119V37.119H0Z" fill="none"/>
      <path id="Path_67" data-name="Path 67" d="M19.559,3A13.921,13.921,0,0,0,5.64,16.919H1l6.016,6.016.108.217,6.248-6.233H8.733a10.878,10.878,0,1,1,3.186,7.64l-2.2,2.2A13.916,13.916,0,1,0,19.559,3Zm-1.547,7.733v7.733l6.619,3.928,1.114-1.871-5.413-3.217V10.733Z" transform="translate(0.547 1.64)" fill="#137fc3"/>
    </g>
  </g>
</svg>
