<svg xmlns="http://www.w3.org/2000/svg" shape-rendering="geometricPrecision" text-rendering="geometricPrecision" image-rendering="optimizeQuality" fill-rule="evenodd" clip-rule="evenodd" viewBox="0 0 512 490.08"><path fill-rule="nonzero" d="M294.46 29.84c12.39 3.81 24.21 9.02 35.29 15.45a157.01 157.01 0 0 0-30.77 14.98c-5.89-2.43-11.96-4.48-18.19-6.11-4.48-1.17-8.25-4.59-9.63-9.36-1.81-6.22-5.77-10.83-10.7-13.73-4.35-2.58-9.62-3.88-14.92-3.88-5.23-.06-10.45 1.25-14.79 3.84-4.73 2.82-8.57 7.36-10.34 13.58-1.34 4.53-4.98 8.27-9.89 9.46C183.6 60.63 159.55 75.25 141 95c-18.63 19.83-31.71 44.86-36.66 72.17-3.34 18.47-2.91 41.71-2.53 63.08l.3 19.79c0 31.57-5.51 58.13-17.72 81.52-11.69 22.39-29.39 41.41-54.1 58.71l429.54.01c-18.54-12.91-33.12-26.87-44.17-42.52 9.56-2.02 18.81-4.9 27.65-8.58 9.23 11.2 20.97 21.47 35.5 31.19 5.63 3.75 9.04 8.95 10.55 14.51l.21.89c1.02 4.43.78 9.08-.52 13.37-1.39 4.56-4.03 8.81-7.64 11.99l-1.17.93c-4.19 3.28-9.56 5.33-15.69 5.35l-136.31.03-.09.36c-16.54 96.56-150.1 96.3-166.19-.32l-136.24.02c-7.13 0-13.13-2.71-17.57-6.89-3.51-3.31-5.96-7.52-7.21-11.95l-.22-.91c-1-4.2-.98-8.71.2-13 1.63-5.98 5.37-11.43 11.47-15.1l.31-.18c22.14-15.15 37.71-31.5 47.63-50.47 10.02-19.2 14.54-41.69 14.54-68.96l-.19-19.38c-.39-22.63-.85-47.25 2.94-68.28 5.91-32.62 21.47-62.42 43.59-85.99 20.42-21.73 46.51-38.24 75.84-46.79 4.41-9.61 11.43-16.91 19.75-21.87 8.63-5.15 18.73-7.74 28.74-7.73 9.93-.05 20 2.54 28.71 7.66 8.53 5.01 15.69 12.42 20.21 22.18zm66.97 106.74h18.65c3.4 0 6.2 2.8 6.2 6.2v57.59h46.75c3.42 0 6.23 2.8 6.23 6.22v18.64c0 3.44-2.81 6.23-6.23 6.23H355.2v-88.68c0-3.4 2.8-6.2 6.23-6.2zm21.46-72.04c35.63 0 67.94 14.46 91.29 37.81 23.35 23.36 37.82 55.64 37.82 91.29 0 35.63-14.47 67.94-37.82 91.29-23.35 23.35-55.66 37.82-91.29 37.82-35.63 0-67.93-14.47-91.29-37.82-23.35-23.35-37.81-55.66-37.81-91.29 0-35.65 14.46-67.93 37.81-91.29 23.36-23.35 55.64-37.81 91.29-37.81zm75.65 53.45c-19.34-19.34-46.1-31.33-75.65-31.33-29.54 0-56.31 11.99-75.65 31.33-19.34 19.34-31.33 46.11-31.33 75.65 0 29.54 11.99 56.31 31.33 75.65 19.34 19.34 46.11 31.33 75.65 31.33 29.55 0 56.31-11.99 75.65-31.33 19.34-19.34 31.33-46.11 31.33-75.65 0-29.54-11.99-56.31-31.33-75.65z"/></svg>