<svg xmlns="http://www.w3.org/2000/svg" width="24.409" height="33.382" viewBox="0 0 24.409 33.382">
  <g id="security-pin" transform="translate(-68.817)">
    <g id="Group_112" data-name="Group 112" transform="translate(68.817)">
      <path id="Path_37" data-name="Path 37" d="M81.021,0a12.329,12.329,0,0,0-12.2,12.424c0,3.832,1.938,8.483,5.76,13.824a60.915,60.915,0,0,0,5.67,6.813,1.092,1.092,0,0,0,1.532.017,54.983,54.983,0,0,0,5.682-6.641c3.825-5.262,5.765-9.976,5.765-14.012A12.33,12.33,0,0,0,81.021,0Zm0,17.787a5.967,5.967,0,1,1,5.967-5.967A5.973,5.973,0,0,1,81.021,17.787Z" transform="translate(-68.817)" fill="#fff"/>
    </g>
  </g>
</svg>
