<?xml version="1.0" ?><svg data-name="Layer 1" id="Layer_1" viewBox="0 0 200 200" xmlns="http://www.w3.org/2000/svg"><path d="M50.21,150.2a3.89,3.89,0,0,1-3.62-5.29l17.3-44.81a.37.37,0,0,0,0-.21l-17.3-44.8a3.89,3.89,0,0,1,5.27-4.93l99.57,46.32h0a3.9,3.9,0,0,1,0,7.06L51.86,149.84A4,4,0,0,1,50.21,150.2Zm0-96.81a.27.27,0,0,0-.19.09.26.26,0,0,0-.07.31L67.25,98.6a4,4,0,0,1,0,2.8L50,146.21a.29.29,0,0,0,.39.36l99.57-46.31a.29.29,0,0,0,0-.52L50.34,53.42A.35.35,0,0,0,50.21,53.39Z"/><path d="M114.48,101.8H65.86a1.8,1.8,0,0,1,0-3.6h48.62a1.8,1.8,0,0,1,0,3.6Z"/></svg>