<svg xmlns="http://www.w3.org/2000/svg" xmlns:xlink="http://www.w3.org/1999/xlink" width="375" height="667" viewBox="0 0 375 667">
  <defs>
    <clipPath id="clip-Thông_báo_1">
      <rect width="375" height="667"/>
    </clipPath>
  </defs>
  <g id="Thông_báo_1" data-name="Thông báo – 1" clip-path="url(#clip-Thông_báo_1)">
    <rect width="375" height="667" fill="#1d1d1d"/>
    <g id="Group_2777" data-name="Group 2777" transform="translate(-6.843 -4.631)">
      <line id="Line_362" data-name="Line 362" x1="9.758" transform="translate(27.944 58.843) rotate(-45)" fill="none" stroke="#fff" stroke-linecap="round" stroke-width="2"/>
      <line id="Line_363" data-name="Line 363" x1="9.758" transform="translate(27.944 58.843) rotate(45)" fill="none" stroke="#fff" stroke-linecap="round" stroke-width="2"/>
    </g>
    <text id="Thông_báo" data-name="Thông báo" transform="translate(36 58)" fill="#fff" font-size="12" font-family="SegoeUI, Segoe UI"><tspan x="0" y="0">Thông báo</tspan></text>
    <g id="Switch_On" data-name="Switch On" transform="translate(311 154)">
      <rect id="Rectangle_1001" data-name="Rectangle 1001" width="27" height="16" rx="8" fill="#3fabae"/>
      <g id="Rectangle_1002" data-name="Rectangle 1002" transform="translate(11)" fill="#fff" stroke="#3fabae" stroke-width="1">
        <rect width="16" height="16" rx="8" stroke="none"/>
        <rect x="0.5" y="0.5" width="15" height="15" rx="7.5" fill="none"/>
      </g>
    </g>
    <g id="Switch_On-2" data-name="Switch On" transform="translate(311 210.5)">
      <rect id="Rectangle_1001-2" data-name="Rectangle 1001" width="27" height="16" rx="8" fill="#3fabae"/>
      <g id="Rectangle_1002-2" data-name="Rectangle 1002" transform="translate(11)" fill="#fff" stroke="#3fabae" stroke-width="1">
        <rect width="16" height="16" rx="8" stroke="none"/>
        <rect x="0.5" y="0.5" width="15" height="15" rx="7.5" fill="none"/>
      </g>
    </g>
    <g id="Switch_On-3" data-name="Switch On" transform="translate(311 363.5)">
      <rect id="Rectangle_1001-3" data-name="Rectangle 1001" width="27" height="16" rx="8" fill="#3fabae"/>
      <g id="Rectangle_1002-3" data-name="Rectangle 1002" transform="translate(11)" fill="#fff" stroke="#3fabae" stroke-width="1">
        <rect width="16" height="16" rx="8" stroke="none"/>
        <rect x="0.5" y="0.5" width="15" height="15" rx="7.5" fill="none"/>
      </g>
    </g>
    <g id="Switch_On-4" data-name="Switch On" transform="translate(311 310)">
      <rect id="Rectangle_1001-4" data-name="Rectangle 1001" width="27" height="16" rx="8" fill="#d9d9d9"/>
      <g id="Rectangle_1002-4" data-name="Rectangle 1002" fill="#fff" stroke="#c9c9c9" stroke-width="1">
        <rect width="16" height="16" rx="8" stroke="none"/>
        <rect x="0.5" y="0.5" width="15" height="15" rx="7.5" fill="none"/>
      </g>
    </g>
    <text id="Công_việc" data-name="Công việc" transform="translate(36 102)" fill="#fff" font-size="16" font-family="SegoeUI-Bold, Segoe UI" font-weight="700"><tspan x="0" y="0">Công việc</tspan></text>
    <text id="Email" transform="translate(36 169)" fill="#fff" font-size="16" font-family="SegoeUI-Bold, Segoe UI" font-weight="700"><tspan x="0" y="0">Email</tspan></text>
    <text id="Thông_báo_đẩy" data-name="Thông báo đẩy" transform="translate(36 226)" fill="#fff" font-size="16" font-family="SegoeUI-Bold, Segoe UI" font-weight="700"><tspan x="0" y="0">Thông báo đẩy</tspan></text>
    <text id="Tin_nhắn_văn_bản" data-name="Tin nhắn văn bản" transform="translate(36 321.5)" fill="#fff" font-size="16" font-family="SegoeUI-Bold, Segoe UI" font-weight="700"><tspan x="0" y="0">Tin nhắn văn bản</tspan></text>
    <text id="Lời_nhắc" data-name="Lời nhắc" transform="translate(36 379)" fill="#fff" font-size="16" font-family="SegoeUI-Bold, Segoe UI" font-weight="700"><tspan x="0" y="0">Lời nhắc</tspan></text>
    <text id="Nhận_phân_công_từ_nội_bộ_công_ty_trong_hệ_thống" data-name="Nhận phân công từ nội bộ công ty trong hệ thống" transform="translate(36 124)" fill="#fff" font-size="12" font-family="SegoeUI, Segoe UI"><tspan x="0" y="0">Nhận phân công từ nội bộ công ty trong hệ thống</tspan></text>
    <text id="Nhận_tin_nhắn_trên_thiết_bị_di_động_hoặc_máy_tính_bảng_của_bạn." data-name="Nhận tin nhắn trên thiết bị di động hoặc máy tính 
bảng của bạn." transform="translate(36 248)" fill="#fff" font-size="12" font-family="SegoeUI, Segoe UI"><tspan x="0" y="0">Nhận tin nhắn trên thiết bị di động hoặc máy tính </tspan><tspan x="0" y="18">bảng của bạn.</tspan></text>
    <text id="Nhận_lời_nhắc_công_việc_các_thông_báo_new_feed_và_nhắc_nhở_đến_hạn_hoàn_thành_công_việc_trong_hệ_thống" data-name="Nhận lời nhắc công việc, các thông báo, new feed, 
và nhắc nhở đến hạn hoàn thành công việc trong 
hệ thống" transform="translate(36 401)" fill="#fff" font-size="12" font-family="SegoeUI, Segoe UI"><tspan x="0" y="0">Nhận lời nhắc công việc, các thông báo, new feed, </tspan><tspan x="0" y="18">và nhắc nhở đến hạn hoàn thành công việc trong </tspan><tspan x="0" y="36">hệ thống</tspan></text>
    <line id="Line_512" data-name="Line 512" x2="302" transform="translate(36 185.5)" fill="none" stroke="#5f5f5f" stroke-width="1"/>
    <line id="Line_513" data-name="Line 513" x2="302" transform="translate(36 281.5)" fill="none" stroke="#5f5f5f" stroke-width="1"/>
    <line id="Line_516" data-name="Line 516" x2="302" transform="translate(36 351.5)" fill="none" stroke="#5f5f5f" stroke-width="1"/>
    <g id="Status_Bar" data-name="Status Bar">
      <rect id="Frame" width="375" height="44" fill="#fff" opacity="0.001"/>
      <g id="Status_Bar-2" data-name="Status Bar" transform="translate(21 13)">
        <g id="Battery" transform="translate(315 3)">
          <g id="Border" transform="translate(0.333 0.333)" fill="none" stroke="#fff" stroke-miterlimit="10" stroke-width="1" opacity="0.35">
            <rect width="22" height="11.333" rx="2.667" stroke="none"/>
            <rect x="0.5" y="0.5" width="21" height="10.333" rx="2.167" fill="none"/>
          </g>
          <path id="Cap" d="M0,0V4A2.17,2.17,0,0,0,1.328,2,2.17,2.17,0,0,0,0,0" transform="translate(23.333 4)" fill="#fff" opacity="0.4"/>
          <rect id="Capacity" width="18" height="7.333" rx="1.333" transform="translate(2.333 2.333)" fill="#fff"/>
        </g>
        <path id="Wifi" d="M7.667,11a.314.314,0,0,1-.222-.093L5.439,8.885a.31.31,0,0,1-.094-.231.316.316,0,0,1,.1-.227,3.437,3.437,0,0,1,4.437,0,.315.315,0,0,1,.009.458L7.889,10.907A.314.314,0,0,1,7.667,11ZM11.19,7.451a.313.313,0,0,1-.215-.086,4.928,4.928,0,0,0-6.612,0,.313.313,0,0,1-.215.086.308.308,0,0,1-.22-.091L2.768,6.189a.322.322,0,0,1,0-.46,7.192,7.192,0,0,1,9.791,0,.323.323,0,0,1,.1.23.319.319,0,0,1-.095.23L11.409,7.36A.309.309,0,0,1,11.19,7.451Zm2.669-2.693a.3.3,0,0,1-.215-.088,8.68,8.68,0,0,0-11.955,0,.307.307,0,0,1-.435,0L.094,3.5a.323.323,0,0,1,0-.457,10.948,10.948,0,0,1,15.141,0,.323.323,0,0,1,0,.457l-1.161,1.17A.306.306,0,0,1,13.859,4.758Z" transform="translate(295 3.331)" fill="#fff"/>
        <path id="Cellular_Connection" data-name="Cellular Connection" d="M16,10.667H15a1,1,0,0,1-1-1V1a1,1,0,0,1,1-1h1a1,1,0,0,1,1,1V9.667A1,1,0,0,1,16,10.667Zm-4.667,0h-1a1,1,0,0,1-1-1V3.334a1,1,0,0,1,1-1h1a1,1,0,0,1,1,1V9.667A1,1,0,0,1,11.334,10.667Zm-4.667,0h-1a1,1,0,0,1-1-1v-4a1,1,0,0,1,1-1h1a1,1,0,0,1,1,1v4A1,1,0,0,1,6.666,10.667ZM2,10.667H1a1,1,0,0,1-1-1v-2a1,1,0,0,1,1-1H2a1,1,0,0,1,1,1v2A1,1,0,0,1,2,10.667Z" transform="translate(273 3.667)" fill="#fff"/>
        <g id="Time_Style" data-name="Time Style">
          <text id="Time" fill="#fff" font-size="15" font-family="SegoeUI-Semibold, Segoe UI" font-weight="600" letter-spacing="-0.02em"><tspan x="14.116" y="16">9:41</tspan></text>
        </g>
      </g>
    </g>
  </g>
</svg>
