<svg xmlns="http://www.w3.org/2000/svg" width="19.929" height="24.528" viewBox="0 0 19.929 24.528">
  <g id="trash" transform="translate(-48)">
    <path id="Path_1254" data-name="Path 1254" d="M66.013,3.066H61.8V2.3A2.3,2.3,0,0,0,59.5,0H56.431a2.3,2.3,0,0,0-2.3,2.3v.766H49.916A1.916,1.916,0,0,0,48,4.982V6.515a.766.766,0,0,0,.766.766h18.4a.766.766,0,0,0,.766-.766V4.982A1.916,1.916,0,0,0,66.013,3.066ZM55.665,2.3a.768.768,0,0,1,.766-.766H59.5a.768.768,0,0,1,.766.766v.766h-4.6Z" transform="translate(0 0)" fill="#969696"/>
    <path id="Path_1255" data-name="Path 1255" d="M73.6,184a.239.239,0,0,0-.239.251L74,197.523a2.3,2.3,0,0,0,2.3,2.19h11.64a2.3,2.3,0,0,0,2.3-2.19l.632-13.272a.24.24,0,0,0-.239-.251Zm11.576,1.916a.766.766,0,1,1,1.533,0v9.964a.766.766,0,0,1-1.533,0Zm-3.832,0a.766.766,0,1,1,1.533,0v9.964a.766.766,0,0,1-1.533,0Zm-3.832,0a.766.766,0,1,1,1.533,0v9.964a.766.766,0,0,1-1.533,0Z" transform="translate(-24.149 -175.185)" fill="#969696"/>
  </g>
</svg>
